<?xml version="1.0" encoding="UTF-8"?>
<svg width="27px" height="30px" viewBox="0 0 27 30" version="1.1" xmlns="http://www.w3.org/2000/svg" xmlns:xlink="http://www.w3.org/1999/xlink">
    <!-- Generator: Sketch 54.1 (76490) - https://sketchapp.com -->
    <title>编组</title>
    <desc>Created with Sketch.</desc>
    <g id="Page-2" stroke="none" stroke-width="1" fill="none" fill-rule="evenodd">
        <g id="元数据" transform="translate(-411.000000, -10.000000)" fill="#FFFFFF" fill-rule="nonzero">
            <g id="Header" transform="translate(411.000000, 6.000000)">
                <g id="编组-2" transform="translate(0.000000, 0.500000)">
                    <g id="编组" transform="translate(0.000000, 3.500000)">
                        <polygon id="Path" points="11 14 20 14 20 16 11 16"></polygon>
                        <polygon id="Path" points="11 18 20 18 20 20 11 20"></polygon>
                        <polygon id="Path" points="7 14 9 14 9 24 7 24"></polygon>
                        <polygon id="Path" points="11 22 20 22 20 24 11 24"></polygon>
                        <path d="M26.8042065,7.43342298 L18.8852179,0.179355118 C18.7597847,0.0645115928 18.5898326,0 18.4125886,0 L3.24821553,0 C1.45709798,0 0,1.33488021 0,2.97561919 L0,27.0244394 C0,28.6651198 1.45716194,30 3.24827949,30 L23.7517205,30 C25.5428381,30 27,28.6651784 27,27.0244394 L27,7.86637135 C26.999936,7.70400839 26.9295118,7.54826651 26.8042065,7.43342298 Z M19.0811394,2.09056232 L24.7180873,7.25418505 L20.992701,7.25418505 C20.4820131,7.25418505 20.0019,7.07201744 19.6408876,6.74131496 C19.2799393,6.41067107 19.0810754,5.97092584 19.0811394,5.50317285 L19.0811394,2.09056232 Z M21.8739078,24.3255011 C21.8739078,24.9123541 21.3912228,25.3898016 20.7979321,25.3898016 L6.3537115,25.3898016 C5.76042086,25.3898016 5.27773585,24.9123541 5.27773585,24.3255011 L5.27773585,13.4543005 C5.27773585,12.8674475 5.76042086,12.39 6.3537115,12.39 L20.7979321,12.39 C21.3912228,12.39 21.8739078,12.8674475 21.8739078,13.4543005 L21.8739078,24.3255011 Z" id="Shape"></path>
                    </g>
                </g>
            </g>
        </g>
    </g>
</svg>