<svg aria-hidden="true" style="position: absolute; width: 0; height: 0; overflow: hidden;" version="1.1" xmlns="http://www.w3.org/2000/svg" xmlns:xlink="http://www.w3.org/1999/xlink">
<defs>
<symbol id="app-logo" viewBox="0 0 22 24">
<title>app-logo</title>
<path d="M8.8 11.2h7.2v1.6h-7.2z"></path>
<path d="M8.8 14.4h7.2v1.6h-7.2z"></path>
<path d="M5.6 11.2h1.6v8h-1.6z"></path>
<path d="M8.8 17.6h7.2v1.6h-7.2z"></path>
<path d="M21.443 5.947l-6.335-5.803c-0.1-0.092-0.236-0.143-0.378-0.143h-12.132c-1.433 0-2.599 1.068-2.599 2.381v19.239c0 1.313 1.166 2.38 2.599 2.38h16.403c1.433 0 2.599-1.068 2.599-2.38v-15.326c-0-0.13-0.056-0.254-0.157-0.346zM15.265 1.672l4.51 4.131h-2.98c-0.409 0-0.793-0.146-1.081-0.41s-0.448-0.616-0.448-0.991v-2.73zM17.499 19.46c0 0.469-0.386 0.851-0.861 0.851h-11.555c-0.475 0-0.861-0.382-0.861-0.851v-8.697c0-0.469 0.386-0.851 0.861-0.851h11.555c0.475 0 0.861 0.382 0.861 0.851v8.697z"></path>
</symbol>
<symbol id="nav-item_busi-categories" viewBox="0 0 24 24">
<title>nav-item_busi-categories</title>
<path d="M7.644 11.287h-2.802c-1.987 0-3.617-1.63-3.617-3.617v-2.853c0-1.987 1.63-3.617 3.617-3.617h2.802c1.987 0 3.617 1.63 3.617 3.617v2.802c0.051 2.038-1.579 3.668-3.617 3.668v0zM4.842 2.728c-1.172 0-2.089 0.968-2.089 2.089v2.802c0 1.172 0.968 2.089 2.089 2.089h2.802c1.172 0 2.089-0.968 2.089-2.089v-2.802c0-1.172-0.968-2.089-2.089-2.089h-2.802zM19.158 11.287h-2.802c-1.987 0-3.617-1.63-3.617-3.617v-2.853c0-1.987 1.63-3.617 3.617-3.617h2.802c1.987 0 3.617 1.63 3.617 3.617v2.802c0 2.038-1.63 3.668-3.617 3.668v0zM16.356 2.728c-1.172 0-2.089 0.968-2.089 2.089v2.802c0 1.172 0.968 2.089 2.089 2.089h2.802c1.172 0 2.089-0.968 2.089-2.089v-2.802c0-1.172-0.968-2.089-2.089-2.089h-2.802zM7.644 22.8h-2.802c-1.987 0-3.617-1.63-3.617-3.617v-2.802c0-1.987 1.63-3.617 3.617-3.617h2.802c1.987 0 3.617 1.63 3.617 3.617v2.802c0.051 1.987-1.579 3.617-3.617 3.617v0zM4.842 14.242c-1.172 0-2.089 0.968-2.089 2.089v2.802c0 1.172 0.968 2.089 2.089 2.089h2.802c1.172 0 2.089-0.968 2.089-2.089v-2.802c0-1.172-0.968-2.089-2.089-2.089h-2.802z"></path>
<path d="M21.45 15.413h-7.234c-0.408 0-0.764-0.357-0.764-0.764s0.357-0.764 0.764-0.764h7.285c0.408 0 0.764 0.357 0.764 0.764s-0.408 0.764-0.815 0.764v0zM20.227 18.826h-6.011c-0.408 0-0.764-0.357-0.764-0.764s0.357-0.764 0.764-0.764h6.011c0.408 0 0.764 0.357 0.764 0.764s-0.357 0.764-0.764 0.764zM17.222 22.291h-3.006c-0.408 0-0.764-0.357-0.764-0.764s0.357-0.764 0.764-0.764h3.006c0.408 0 0.764 0.357 0.764 0.764s-0.357 0.764-0.764 0.764z"></path>
</symbol>
<symbol id="nav-item_questions" viewBox="0 0 24 24">
<title>nav-item_questions</title>
<path d="M11.926 18.197l-3.88 3.88c-0.14 0.141-0.328 0.217-0.523 0.217s-0.382-0.076-0.522-0.216c-0.289-0.289-0.289-0.756 0-1.045l4.097-4.097c0.15-0.15 0.352-0.226 0.546-0.216h8.363c0.696 0 1.263-0.567 1.263-1.263v-11.010c0-0.696-0.567-1.263-1.263-1.263h-16.014c-0.696 0-1.263 0.567-1.263 1.263v11.010c0 0.696 0.567 1.263 1.263 1.263h3.252c0.408 0 0.739 0.331 0.739 0.739s-0.331 0.739-0.739 0.739h-3.252c-1.511 0-2.74-1.229-2.74-2.74v-11.010c0-1.511 1.229-2.74 2.74-2.74h16.014c1.511 0 2.74 1.229 2.74 2.74v11.009c0.001 1.512-1.229 2.741-2.74 2.741h-8.081zM19.257 8.688h-14.513c-0.408 0-0.739-0.331-0.739-0.739s0.331-0.739 0.739-0.739h14.513c0.408 0 0.739 0.331 0.739 0.739s-0.331 0.739-0.739 0.739zM14.252 12.692h-9.508c-0.408 0-0.739-0.331-0.739-0.739s0.331-0.739 0.739-0.739h9.508c0.408 0 0.739 0.331 0.739 0.739s-0.331 0.739-0.739 0.739z"></path>
</symbol>
<symbol id="nav-item_tech-categories" viewBox="0 0 24 24">
<title>nav-item_tech-categories</title>
<path d="M8.881 4.822c0-1.738 1.407-3.16 3.125-3.16s3.125 1.411 3.125 3.149c0 1.738-1.407 3.16-3.125 3.16s-3.125-1.411-3.125-3.149zM12.012 2.993c-0.996 0-1.812 0.825-1.812 1.833s0.816 1.822 1.812 1.822c0.996 0 1.812-0.825 1.812-1.833s-0.816-1.822-1.812-1.822zM12.006 22.338c-1.718 0-3.125-1.423-3.125-3.16s1.407-3.16 3.125-3.16c1.718 0 3.125 1.423 3.125 3.16s-1.407 3.16-3.125 3.16v0zM12.074 17.384c-0.993 0-1.807 0.823-1.807 1.828s0.814 1.828 1.807 1.828c0.993 0 1.807-0.823 1.807-1.828s-0.814-1.828-1.807-1.828zM4.373 22.338c-1.718 0-3.125-1.423-3.125-3.16s1.407-3.16 3.125-3.16c1.718 0 3.125 1.423 3.125 3.16s-1.407 3.16-3.125 3.16v0zM4.531 17.385c-0.993 0-1.807 0.823-1.807 1.828s0.814 1.828 1.807 1.828c0.993 0 1.807-0.823 1.807-1.828s-0.814-1.828-1.807-1.828zM19.627 22.338c-1.718 0-3.125-1.423-3.125-3.16s1.407-3.16 3.125-3.16c1.718 0 3.125 1.423 3.125 3.16s-1.407 3.16-3.125 3.16v0zM19.616 17.382c-0.993 0-1.807 0.823-1.807 1.828s0.814 1.828 1.807 1.828c0.993 0 1.807-0.823 1.807-1.828s-0.814-1.828-1.807-1.828z"></path>
<path d="M18.965 16.636v-4.481h-13.91v4.481c0 0.322-0.252 0.446-0.577 0.446s-0.748-0.124-0.748-0.446v-5.301c0-0.322 0.256-0.575 0.581-0.575h15.379c0.325 0 0.581 0.253 0.581 0.575v5.301c0 0.322-0.256 0.575-0.581 0.575s-0.724-0.253-0.724-0.575z"></path>
<path d="M12.011 16.549c-0.391 0-0.699-0.259-0.699-0.588v-7.922c0-0.329 0.308-0.588 0.699-0.588s0.699 0.259 0.699 0.588v7.922c0 0.329-0.308 0.588-0.699 0.588z"></path>
</symbol>
<symbol id="fire" viewBox="0 0 18 24">
<title>fire</title>
<path d="M17.949 13.55c-0.275-3.452-1.941-5.614-3.412-7.523-1.361-1.767-2.537-3.293-2.537-5.544 0-0.181-0.105-0.346-0.271-0.429s-0.368-0.070-0.52 0.037c-2.208 1.524-4.050 4.091-4.694 6.541-0.447 1.706-0.506 3.623-0.514 4.89-2.039-0.42-2.501-3.361-2.506-3.393-0.023-0.153-0.12-0.285-0.26-0.358-0.142-0.072-0.309-0.077-0.453-0.008-0.107 0.050-2.625 1.283-2.771 6.209-0.010 0.164-0.011 0.328-0.011 0.493 0 4.785 4.038 8.678 9 8.678 0.007 0 0.014 0.001 0.020 0 0.002 0 0.004 0 0.006 0 4.95-0.014 8.974-3.902 8.974-8.678 0-0.241-0.051-0.914-0.051-0.914zM9 22.178c-1.654 0-3-1.382-3-3.081 0-0.058-0-0.116 0.004-0.188 0.020-0.717 0.161-1.206 0.316-1.531 0.29 0.601 0.809 1.153 1.651 1.153 0.276 0 0.5-0.216 0.5-0.482 0-0.686 0.015-1.478 0.192-2.193 0.158-0.634 0.535-1.308 1.012-1.848 0.212 0.702 0.626 1.269 1.031 1.823 0.579 0.793 1.177 1.613 1.282 3.010 0.006 0.083 0.013 0.166 0.013 0.256-0 1.699-1.346 3.081-3 3.081z"></path>
</symbol>
<symbol id="high-quality" viewBox="0 0 56 24">
<title>high-quality</title>
<path d="M10.511 0h40.496c2.651 0 4.8 2.149 4.8 4.8v14.4c0 2.651-2.149 4.8-4.8 4.8h-40.496c-2.651 0-4.8-2.149-4.8-4.8v-4.484l-4.996-2.596 4.996-2.883v-4.437c0-2.651 2.149-4.8 4.8-4.8zM10.68 1.2c-1.988 0-3.6 1.612-3.6 3.6v14.4c0 1.988 1.612 3.6 3.6 3.6h40.2c1.988 0 3.6-1.612 3.6-3.6v-14.4c0-1.988-1.612-3.6-3.6-3.6h-40.2zM3.352 12.12l3.727 1.746v-3.738l-3.727 1.992z"></path>
<path d="M17.203 5.506c0.13 0.36 0.259 0.749 0.389 1.181h5.602v1.267h-12.802v-1.267h5.717c-0.13-0.331-0.274-0.634-0.432-0.922l1.526-0.259zM20.861 18.84h-1.195l-0.317-1.224 1.109 0.058c0.533 0 0.806-0.202 0.806-0.576v-3.643h-8.928v5.429h-1.296v-6.61h11.52v5.112c0 0.965-0.576 1.454-1.699 1.454zM12.653 8.63h8.309v2.995h-8.309v-2.995zM19.651 10.589v-0.922h-5.688v0.922h5.688zM13.877 14.146h5.861v3.024h-5.861v-3.024zM18.528 16.162v-1.008h-3.427v1.008h3.427zM27.283 9.998v1.094c-0.072 3.226-0.691 5.789-1.872 7.718l-0.95-1.008c0.922-1.613 1.426-3.859 1.512-6.71v-4.579c3.859-0.043 7.301-0.346 10.325-0.907l0.677 1.224c-2.88 0.49-6.12 0.778-9.691 0.835v1.066h4.522c0.058-0.389 0.101-0.763 0.144-1.138l1.368 0.173c-0.029 0.331-0.072 0.648-0.115 0.965h4.406v1.267h-4.622c-0.086 0.36-0.158 0.706-0.245 1.051h3.643v5.026h-1.31v-3.758h-5.371v3.773h-1.31v-5.040h2.966c0.086-0.36 0.158-0.706 0.23-1.051h-4.306zM33.317 15.643c1.584 0.562 3.010 1.253 4.306 2.059l-0.749 1.181c-1.382-0.936-2.794-1.67-4.248-2.218l0.691-1.022zM32.021 12.778l1.325 0.086c-0.173 1.699-0.691 3.010-1.584 3.902-0.893 0.907-2.275 1.627-4.133 2.146l-0.734-1.267c1.67-0.403 2.909-0.965 3.701-1.699 0.792-0.749 1.267-1.8 1.426-3.168zM40.488 11.64h10.253v3.744h-4.478v0.634h4.766v0.878h-4.766v0.677h5.818v1.037h-12.96v-1.037h5.789v-0.677h-4.709v-0.878h4.709v-0.634h-4.421v-3.744zM49.445 14.578v-0.691h-3.182v0.691h3.182zM44.909 14.578v-0.691h-3.125v0.691h3.125zM41.784 13.138h3.125v-0.691h-3.125v0.691zM46.262 12.446v0.691h3.182v-0.691h-3.182zM40.805 5.808h9.634v3.658h-9.634v-3.658zM49.128 8.688v-0.662h-7.013v0.662h7.013zM42.115 7.248h7.013v-0.648h-7.013v0.648zM39.12 10.070h12.96v0.979h-12.96v-0.979z"></path>
</symbol>
<symbol id="table-file" viewBox="0 0 24 24">
<title>table-file</title>
<path d="M22.506 6.842c0.020-2.926 0.029-4.644 0.029-5.155 0-0.766-0.57-1.688-2.109-1.688s-7.849 0-8.145 0h-10.107c-1.166 0-2.139 0.755-2.139 1.688v20.625c0 0.933 0.973 1.688 2.139 1.688h18.252c1.166 0 2.080-0.755 2.080-1.688v-14.051c0-0.297 0-0.77 0-1.419zM21.035 22.313h-19.5v-20.625h19.5v20.625zM18.419 14.094c0-0.466-0.44-0.844-0.984-0.844h-12.25c-0.544 0-0.984 0.377-0.984 0.844s0.44 0.844 0.984 0.844h12.25c0.544 0 0.984-0.377 0.984-0.844zM18.419 18.094c0-0.466-0.44-0.844-0.984-0.844h-12.25c-0.544 0-0.984 0.377-0.984 0.844s0.44 0.844 0.984 0.844h12.25c0.544 0 0.984-0.377 0.984-0.844zM18.419 6.094c0-0.466-0.44-0.844-0.984-0.844h-12.25c-0.544 0-0.984 0.377-0.984 0.844s0.44 0.844 0.984 0.844h12.25c0.544 0 0.984-0.377 0.984-0.844zM18.419 10.094c0-0.466-0.44-0.844-0.984-0.844h-12.25c-0.544 0-0.984 0.377-0.984 0.844s0.44 0.844 0.984 0.844h12.25c0.544 0 0.984-0.377 0.984-0.844z"></path>
</symbol>
<symbol id="signal-level-5" viewBox="0 0 28 24">
<title>signal-level-5</title>
<path d="M15.15 10.8h-2.7c-0.131 0-0.239 0.062-0.323 0.185s-0.127 0.282-0.127 0.474v11.881c0 0.193 0.042 0.351 0.127 0.474s0.192 0.186 0.323 0.186h2.7c0.131 0 0.239-0.062 0.323-0.186s0.127-0.282 0.127-0.474v-11.881c0-0.192-0.042-0.351-0.127-0.474s-0.192-0.185-0.323-0.185z"></path>
<path d="M21.15 4.8h-2.7c-0.131 0-0.239 0.056-0.324 0.169s-0.126 0.256-0.126 0.431v18c0 0.175 0.042 0.319 0.126 0.431s0.192 0.169 0.324 0.169h2.7c0.131 0 0.239-0.056 0.323-0.169s0.127-0.256 0.127-0.431v-18c0-0.175-0.042-0.319-0.127-0.431s-0.192-0.169-0.323-0.169z"></path>
<path d="M3.15 20.4h-2.7c-0.131 0-0.239 0.042-0.323 0.126s-0.126 0.192-0.126 0.323v2.7c0 0.131 0.042 0.239 0.126 0.323s0.192 0.127 0.323 0.127h2.7c0.131 0 0.239-0.042 0.323-0.127s0.126-0.192 0.126-0.323v-2.7c0-0.131-0.042-0.239-0.126-0.323s-0.192-0.126-0.323-0.126z"></path>
<path d="M9.15 15.6h-2.7c-0.131 0-0.239 0.066-0.323 0.197s-0.126 0.299-0.126 0.503v7c0 0.205 0.042 0.372 0.126 0.503s0.192 0.197 0.323 0.197h2.7c0.131 0 0.239-0.066 0.323-0.197s0.126-0.299 0.126-0.503v-7c0-0.204-0.042-0.372-0.126-0.503s-0.192-0.197-0.323-0.197z"></path>
<path d="M27.474 0.141c-0.085-0.094-0.192-0.141-0.324-0.141h-2.7c-0.131 0-0.239 0.047-0.323 0.141s-0.127 0.213-0.127 0.359v23c0 0.146 0.042 0.266 0.127 0.359s0.192 0.141 0.323 0.141h2.7c0.131 0 0.239-0.047 0.324-0.141s0.126-0.213 0.126-0.359v-23c0-0.146-0.042-0.266-0.126-0.359z"></path>
</symbol>
<symbol id="signal-level-4" viewBox="0 0 28 24">
<title>signal-level-4</title>
<path d="M3.15 20.4h-2.7c-0.131 0-0.239 0.042-0.323 0.126s-0.126 0.192-0.126 0.323v2.7c0 0.131 0.042 0.239 0.126 0.323s0.192 0.127 0.323 0.127h2.7c0.131 0 0.239-0.042 0.323-0.127s0.126-0.192 0.126-0.323v-2.7c0-0.131-0.042-0.239-0.126-0.323s-0.192-0.126-0.323-0.126z"></path>
<path d="M15.15 10.8h-2.7c-0.131 0-0.239 0.062-0.323 0.185s-0.127 0.282-0.127 0.474v11.881c0 0.193 0.042 0.351 0.127 0.474s0.192 0.186 0.323 0.186h2.7c0.131 0 0.239-0.062 0.323-0.186s0.127-0.282 0.127-0.474v-11.881c0-0.192-0.042-0.351-0.127-0.474s-0.192-0.185-0.323-0.185z"></path>
<path d="M9.15 15.6h-2.7c-0.131 0-0.239 0.066-0.323 0.197s-0.126 0.299-0.126 0.503v7c0 0.205 0.042 0.372 0.126 0.503s0.192 0.197 0.323 0.197h2.7c0.131 0 0.239-0.066 0.323-0.197s0.126-0.299 0.126-0.503v-7c0-0.204-0.042-0.372-0.126-0.503s-0.192-0.197-0.323-0.197z"></path>
<path d="M21.15 4.8h-2.7c-0.131 0-0.239 0.056-0.324 0.169s-0.126 0.256-0.126 0.431v18c0 0.175 0.042 0.319 0.126 0.431s0.192 0.169 0.324 0.169h2.7c0.131 0 0.239-0.056 0.323-0.169s0.127-0.256 0.127-0.431v-18c0-0.175-0.042-0.319-0.127-0.431s-0.192-0.169-0.323-0.169z"></path>
</symbol>
<symbol id="signal-level-3" viewBox="0 0 28 24">
<title>signal-level-3</title>
<path d="M15.15 10.8h-2.7c-0.131 0-0.239 0.062-0.323 0.185s-0.127 0.282-0.127 0.474v11.881c0 0.193 0.042 0.351 0.127 0.474s0.192 0.186 0.323 0.186h2.7c0.131 0 0.239-0.062 0.323-0.186s0.127-0.282 0.127-0.474v-11.881c0-0.192-0.042-0.351-0.127-0.474s-0.192-0.185-0.323-0.185z"></path>
<path d="M3.15 20.4h-2.7c-0.131 0-0.239 0.042-0.323 0.126s-0.126 0.192-0.126 0.323v2.7c0 0.131 0.042 0.239 0.126 0.323s0.192 0.127 0.323 0.127h2.7c0.131 0 0.239-0.042 0.323-0.127s0.126-0.192 0.126-0.323v-2.7c0-0.131-0.042-0.239-0.126-0.323s-0.192-0.126-0.323-0.126z"></path>
<path d="M9.15 15.6h-2.7c-0.131 0-0.239 0.066-0.323 0.197s-0.126 0.299-0.126 0.503v7c0 0.205 0.042 0.372 0.126 0.503s0.192 0.197 0.323 0.197h2.7c0.131 0 0.239-0.066 0.323-0.197s0.126-0.299 0.126-0.503v-7c0-0.204-0.042-0.372-0.126-0.503s-0.192-0.197-0.323-0.197z"></path>
</symbol>
<symbol id="signal-level-2" viewBox="0 0 28 24">
<title>signal-level-2</title>
<path d="M3.15 20.4h-2.7c-0.132 0-0.24 0.042-0.324 0.126-0.078 0.079-0.126 0.188-0.126 0.308 0 0.006 0 0.011 0 0.017l-0-0.001v2.7c0 0.132 0.042 0.24 0.126 0.324s0.192 0.126 0.324 0.126h2.7c0.132 0 0.24-0.042 0.324-0.126s0.126-0.192 0.126-0.324v-2.7c0-0.005 0-0.011 0-0.016 0-0.12-0.048-0.229-0.126-0.308l0 0c-0.079-0.078-0.188-0.126-0.308-0.126-0.006 0-0.011 0-0.017 0l0.001-0zM9.15 15.6h-2.7c-0.132 0-0.24 0.066-0.324 0.197-0.080 0.133-0.127 0.293-0.127 0.465 0 0.013 0 0.027 0.001 0.040l-0-0.002v7.001c0 0.204 0.042 0.372 0.126 0.504 0.084 0.13 0.192 0.196 0.324 0.196h2.7c0.132 0 0.24-0.066 0.324-0.197 0.084-0.132 0.126-0.299 0.126-0.504v-7c0-0.204-0.042-0.372-0.126-0.504-0.084-0.13-0.192-0.196-0.324-0.196z"></path>
</symbol>
<symbol id="signal-level-1" viewBox="0 0 28 24">
<title>signal-level-1</title>
<path d="M3.15 20.4h-2.7c-0.131 0-0.239 0.042-0.323 0.126s-0.126 0.192-0.126 0.323v2.7c0 0.131 0.042 0.239 0.126 0.323s0.192 0.127 0.323 0.127h2.7c0.131 0 0.239-0.042 0.323-0.127s0.126-0.192 0.126-0.323v-2.7c0-0.131-0.042-0.239-0.126-0.323s-0.192-0.126-0.323-0.126z"></path>
<path d="M3.15 20.4h-2.7c-0.131 0-0.239 0.042-0.323 0.126s-0.126 0.192-0.126 0.323v2.7c0 0.131 0.042 0.239 0.126 0.323s0.192 0.127 0.323 0.127h2.7c0.131 0 0.239-0.042 0.323-0.127s0.126-0.192 0.126-0.323v-2.7c0-0.131-0.042-0.239-0.126-0.323s-0.192-0.126-0.323-0.126z"></path>
</symbol>
</defs>
</svg>
