<?xml version="1.0" encoding="UTF-8"?>
<svg width="26px" height="25px" viewBox="0 0 26 25" version="1.1" xmlns="http://www.w3.org/2000/svg" xmlns:xlink="http://www.w3.org/1999/xlink">
    <!-- Generator: Sketch 54.1 (76490) - https://sketchapp.com -->
    <title>社区</title>
    <desc>Created with Sketch.</desc>
    <g id="Page-2" stroke="none" stroke-width="1" fill="none" fill-rule="evenodd">
        <g id="元数据" transform="translate(-1047.000000, -13.000000)" fill="#A6A6A6" fill-rule="nonzero" stroke="#A6A6A6" stroke-width="0.5">
            <g id="Header" transform="translate(411.000000, 6.000000)">
                <g id="编组-2" transform="translate(0.000000, 0.500000)">
                    <g id="Group-28" transform="translate(378.000000, 2.500000)">
                        <g id="Group-3" transform="translate(0.000000, 4.000000)">
                            <g id="社区" transform="translate(259.000000, 1.000000)">
                                <path d="M20.3045455,7.39244318 L3.69545454,7.39244318 C3.39436364,7.39244318 3.15,7.14807954 3.15,6.84698864 C3.15,6.54589774 3.39436364,6.3015341 3.69545454,6.3015341 L20.3045454,6.3015341 C20.6056363,6.3015341 20.85,6.54589774 20.85,6.84698864 C20.85,7.14807954 20.6056364,7.39244318 20.3045455,7.39244318 Z" id="路径"></path>
                                <path d="M14.5772727,11.9742614 L3.69545454,11.9742614 C3.39436364,11.9742614 3.15,11.7298977 3.15,11.4288068 C3.15,11.1277159 3.39436364,10.8833523 3.69545454,10.8833523 L14.5772727,10.8833523 C14.8783636,10.8833523 15.1227273,11.1277159 15.1227273,11.4288068 C15.1227273,11.7298977 14.8783636,11.9742614 14.5772727,11.9742614 Z" id="路径"></path>
                                <path d="M21.1636364,18.2748068 L11.5707273,18.2748068 C11.2696364,18.2748068 11.0252727,18.0304432 11.0252727,17.7293523 C11.0252727,17.4282614 11.2696364,17.1838977 11.5707273,17.1838977 L21.1636364,17.1838977 C22.1258182,17.1838977 22.9085455,16.400625 22.9085455,15.4384432 L22.9085455,2.83789772 C22.9085455,1.8757159 22.1258182,1.09244318 21.1636364,1.09244318 L2.83636364,1.09244318 C1.87363636,1.09244318 1.0909091,1.8757159 1.0909091,2.83789772 L1.0909091,15.4378977 C1.0909091,16.400625 1.87418182,17.1833523 2.83636364,17.1833523 L6.55854546,17.1833523 C6.85963636,17.1833523 7.104,17.4277159 7.104,17.7288068 C7.104,18.0298977 6.85963636,18.2742613 6.55854546,18.2742613 L2.83636364,18.2742614 C1.27254546,18.2742614 0,17.0017159 0,15.4378977 L0,2.83789772 C0,1.27407954 1.27254546,0.00153407813 2.83636364,0.00153407813 L21.1636364,0.00153407813 C22.7274545,0.00153407813 23.9994545,1.27407954 23.9994545,2.83789772 L23.9994545,15.4378977 C24,17.0022614 22.7274545,18.2748068 21.1636364,18.2748068 Z" id="路径"></path>
                                <path d="M6.876,22.9635341 C6.73636364,22.9635341 6.59672728,22.9100796 6.49036364,22.8037159 C6.27709092,22.5904432 6.27709092,22.2457159 6.49036364,22.0324432 L11.1796364,17.3431705 C11.3929091,17.1298978 11.7376364,17.1298978 11.9509091,17.3431705 C12.1641818,17.5564432 12.1641818,17.9011705 11.9509091,18.1144432 L7.26163636,22.8037159 C7.15527272,22.910625 7.01563636,22.9635341 6.876,22.9635341 Z" id="路径"></path>
                            </g>
                        </g>
                    </g>
                </g>
            </g>
        </g>
    </g>
</svg>