<svg xmlns="http://www.w3.org/2000/svg" viewBox="0 0 24 24">
  <symbol id="shape">
    <path d="M6.87 10.784H3.88c-2.121 0-3.861-1.74-3.861-3.86V3.879c0-2.12 1.74-3.86 3.86-3.86h2.99c2.121 0 3.86 1.74 3.86 3.86v2.99c.055 2.175-1.685 3.915-3.86 3.915zM3.88 1.65a2.24 2.24 0 0 0-2.23 2.23v2.99a2.24 2.24 0 0 0 2.23 2.229h2.99a2.24 2.24 0 0 0 2.229-2.23V3.88a2.24 2.24 0 0 0-2.23-2.23H3.88zm15.278 9.134h-2.99c-2.121 0-3.861-1.74-3.861-3.86V3.879c0-2.12 1.74-3.86 3.86-3.86h2.99c2.121 0 3.86 1.74 3.86 3.86v2.99c0 2.175-1.739 3.915-3.86 3.915zm-2.99-9.134a2.24 2.24 0 0 0-2.23 2.23v2.99a2.24 2.24 0 0 0 2.23 2.229h2.99a2.24 2.24 0 0 0 2.229-2.23V3.88a2.24 2.24 0 0 0-2.23-2.23h-2.99zM6.87 23.072H3.88c-2.121 0-3.861-1.74-3.861-3.86v-2.99c0-2.121 1.74-3.86 3.86-3.86h2.99c2.121 0 3.86 1.739 3.86 3.86v2.99c.055 2.12-1.685 3.86-3.86 3.86zm-2.99-9.134a2.24 2.24 0 0 0-2.23 2.23v2.99a2.24 2.24 0 0 0 2.23 2.229h2.99a2.24 2.24 0 0 0 2.229-2.23v-2.99a2.24 2.24 0 0 0-2.23-2.23H3.88zM21.604 15.188h-7.72a.836.836 0 0 1-.816-.815c0-.435.38-.816.815-.816h7.776c.435 0 .815.38.815.816 0 .435-.435.815-.87.815zM20.3 18.831h-6.416a.836.836 0 0 1-.815-.815c0-.435.38-.816.815-.816H20.3c.435 0 .816.38.816.816 0 .435-.38.815-.816.815zm-3.208 3.698h-3.208a.836.836 0 0 1-.815-.816c0-.435.38-.816.815-.816h3.208c.435 0 .816.381.816.816 0 .435-.38.816-.816.816z"/>
  </symbol>
</svg>
