<?xml version="1.0" encoding="UTF-8"?>
<svg width="24px" height="24px" viewBox="0 0 24 24" version="1.1" xmlns="http://www.w3.org/2000/svg" xmlns:xlink="http://www.w3.org/1999/xlink">
    <!-- Generator: Sketch 54.1 (76490) - https://sketchapp.com -->
    <title>采购分类统计</title>
    <desc>Created with Sketch.</desc>
    <g id="Page-2" stroke="none" stroke-width="1" fill="none" fill-rule="evenodd">
        <g id="元数据" transform="translate(-789.000000, -13.000000)" fill="#FFFFFF" fill-rule="nonzero">
            <g id="Header" transform="translate(411.000000, 6.000000)">
                <g id="编组-2" transform="translate(0.000000, 0.500000)">
                    <g id="Group-28" transform="translate(378.000000, 2.500000)">
                        <g id="Group-3" transform="translate(0.000000, 4.000000)">
                            <g id="采购分类统计">
                                <path d="M12.0064343,7.04152024 C10.089008,7.04152024 8.51903485,5.4666146 8.51903485,3.52726799 C8.51903485,1.58792138 10.089008,0 12.0064343,0 C13.9238606,0 15.4938338,1.57490564 15.4938338,3.51425225 C15.4938338,5.45359885 13.9238606,7.04152024 12.0064343,7.04152024 L12.0064343,7.04152024 Z M12.0064343,1.30157491 C10.7967828,1.30157491 9.80589812,2.30378758 9.80589812,3.52726799 C9.80589812,4.75074841 10.7967828,5.73994533 12.0064343,5.73994533 C13.2160858,5.73994533 14.2069705,4.73773266 14.2069705,3.51425225 C14.2069705,2.29077183 13.2160858,1.30157491 12.0064343,1.30157491 Z M12.0064343,23.0769231 C10.089008,23.0769231 8.51903485,21.4890017 8.51903485,19.5496551 C8.51903485,17.6103085 10.089008,16.0223871 12.0064343,16.0223871 C13.9238606,16.0223871 15.4938338,17.6103085 15.4938338,19.5496551 C15.4938338,21.4890017 13.9238606,23.0769231 12.0064343,23.0769231 L12.0064343,23.0769231 Z M12.0064343,17.323962 C10.7967828,17.323962 9.80589812,18.3261747 9.80589812,19.5496551 C9.80589812,20.7731355 10.7967828,21.7753482 12.0064343,21.7753482 C13.2160858,21.7753482 14.2069705,20.7731355 14.2069705,19.5496551 C14.2069705,18.3261747 13.2160858,17.323962 12.0064343,17.323962 Z M3.48739946,23.0769231 C1.56997319,23.0769231 0,21.4890017 0,19.5496551 C0,17.6103085 1.56997319,16.0223871 3.48739946,16.0223871 C5.40482574,16.0223871 6.97479893,17.6103085 6.97479893,19.5496551 C6.97479893,21.4890017 5.40482574,23.0769231 3.48739946,23.0769231 L3.48739946,23.0769231 Z M3.48739946,17.323962 C2.27774799,17.323962 1.28686327,18.3261747 1.28686327,19.5496551 C1.28686327,20.7731355 2.27774799,21.7753482 3.48739946,21.7753482 C4.69705094,21.7753482 5.68793566,20.7731355 5.68793566,19.5496551 C5.68793566,18.3261747 4.69705094,17.323962 3.48739946,17.323962 Z M20.5126005,23.0769231 C18.5951743,23.0769231 17.0252011,21.4890017 17.0252011,19.5496551 C17.0252011,17.6103085 18.5951743,16.0223871 20.5126005,16.0223871 C22.4300268,16.0223871 24,17.6103085 24,19.5496551 C24,21.4890017 22.4300268,23.0769231 20.5126005,23.0769231 L20.5126005,23.0769231 Z M20.5126005,17.323962 C19.3029491,17.323962 18.3120643,18.3261747 18.3120643,19.5496551 C18.3120643,20.7731355 19.3029491,21.7753482 20.5126005,21.7753482 C21.722252,21.7753482 22.7131367,20.7731355 22.7131367,19.5496551 C22.7131367,18.3261747 21.722252,17.323962 20.5126005,17.323962 Z" id="形状"></path>
                                <path d="M20.5820855,17.5384615 C20.2188226,17.5384615 19.9334018,17.2488688 19.9334018,16.8802962 L19.9334018,11.4701769 L4.06659819,11.4701769 L4.06659819,16.8802962 C4.06659819,17.2488688 3.78117736,17.5384615 3.41791448,17.5384615 C3.0546516,17.5384615 2.76923077,17.2488688 2.76923077,16.8802962 L2.76923077,10.8120115 C2.76923077,10.4434389 3.0546516,10.1538462 3.41791448,10.1538462 L20.5820855,10.1538462 C20.9453484,10.1538462 21.2307692,10.4434389 21.2307692,10.8120115 L21.2307692,16.8802962 C21.2307692,17.2488688 20.9453484,17.5384615 20.5820855,17.5384615 L20.5820855,17.5384615 Z" id="路径"></path>
                                <path d="M12.4615385,16.6153846 C12.2030769,16.6153846 12,16.326774 12,15.9594514 L12,7.11747168 C12,6.75014908 12.2030769,6.46153846 12.4615385,6.46153846 C12.72,6.46153846 12.9230769,6.75014908 12.9230769,7.11747168 L12.9230769,15.9594514 C12.9230769,16.326774 12.72,16.6153846 12.4615385,16.6153846 Z" id="路径"></path>
                            </g>
                        </g>
                    </g>
                </g>
            </g>
        </g>
    </g>
</svg>