<?xml version="1.0" encoding="UTF-8"?>
<svg width="12px" height="12px" viewBox="0 0 12 12" version="1.1" xmlns="http://www.w3.org/2000/svg" xmlns:xlink="http://www.w3.org/1999/xlink">
    <!-- Generator: Sketch 54.1 (76490) - https://sketchapp.com -->
    <title>Shape</title>
    <desc>Created with Sketch.</desc>
    <g id="Page-2" stroke="none" stroke-width="1" fill="none" fill-rule="evenodd">
        <g id="数据明细页" transform="translate(-351.000000, -257.000000)" fill="#999999" fill-rule="nonzero">
            <g id="编组-20" transform="translate(85.000000, 137.000000)">
                <path d="M274.404688,123.588281 C274.239453,123.424219 273.972266,123.424219 273.808203,123.589453 L272,125.402344 L270.191797,123.589453 C270.027734,123.424219 269.760547,123.424219 269.595312,123.588281 C269.430078,123.752344 269.430078,124.019531 269.594141,124.184766 L271.404688,126 L269.594141,127.815234 C269.430078,127.980469 269.430078,128.247656 269.595312,128.411719 C269.677344,128.49375 269.785156,128.534766 269.892969,128.534766 C270.000781,128.534766 270.109766,128.49375 270.191797,128.410547 L272,126.597656 L273.808203,128.411719 C273.890234,128.494922 273.999219,128.535937 274.107031,128.535937 C274.214844,128.535937 274.322656,128.494922 274.404688,128.412891 C274.569922,128.248828 274.569922,127.981641 274.405859,127.816406 L272.595312,126 L274.404688,124.184766 C274.569922,124.019531 274.569922,123.752344 274.404688,123.588281 Z M272,120 C268.685938,120 266,122.685937 266,126 C266,129.314063 268.685938,132 272,132 C275.314062,132 278,129.314063 278,126 C278,122.685937 275.314062,120 272,120 Z M275.645703,129.645703 C275.172266,130.119141 274.620313,130.491797 274.00625,130.750781 C273.371094,131.020312 272.696094,131.15625 272,131.15625 C271.303906,131.15625 270.628906,131.020312 269.99375,130.751953 C269.379687,130.491797 268.828906,130.120313 268.354297,129.646875 C267.880859,129.173438 267.508203,128.621484 267.249219,128.007422 C266.979688,127.371094 266.84375,126.696094 266.84375,126 C266.84375,125.303906 266.979688,124.628906 267.248047,123.99375 C267.508203,123.379688 267.879687,122.828906 268.353125,122.354297 C268.826563,121.880859 269.378516,121.508203 269.992578,121.249219 C270.628906,120.979687 271.303906,120.84375 272,120.84375 C272.696094,120.84375 273.371094,120.979687 274.00625,121.248047 C274.620313,121.508203 275.171094,121.879688 275.645703,122.353125 C276.119141,122.826562 276.491797,123.378516 276.750781,123.992578 C277.020312,124.628906 277.15625,125.303906 277.15625,126 C277.15625,126.696094 277.020312,127.371094 276.751953,128.00625 C276.491797,128.620313 276.120313,129.172266 275.645703,129.645703 Z" id="Shape"></path>
            </g>
        </g>
    </g>
</svg>