<?xml version="1.0" encoding="UTF-8"?>
<svg width="14px" height="14px" viewBox="0 0 14 14" version="1.1" xmlns="http://www.w3.org/2000/svg" xmlns:xlink="http://www.w3.org/1999/xlink">
    <!-- Generator: Sketch 54.1 (76490) - https://sketchapp.com -->
    <title>Shape</title>
    <desc>Created with Sketch.</desc>
    <g id="Page-2" stroke="none" stroke-width="1" fill="none" fill-rule="evenodd">
        <g id="数据明细页" transform="translate(-178.000000, -203.000000)" fill="#FFFFFF" fill-rule="nonzero">
            <g id="编组-20" transform="translate(85.000000, 137.000000)">
                <path d="M106.131783,72.1105309 L100.783807,72.1105309 L100.783807,66.8772846 C100.783807,66.3923412 100.395521,66 99.91559,66 C99.4356589,66 99.047373,66.3923412 99.047373,66.8772846 L99.047373,72.1105309 L93.8682171,72.1105309 C93.388286,72.1105309 93,72.5028721 93,72.9878155 C93,73.4727589 93.388286,73.8651001 93.8682171,73.8651001 L99.047373,73.8651001 L99.047373,79.1227154 C99.047373,79.6076588 99.4356589,80 99.91559,80 C100.395521,80 100.783807,79.6076588 100.783807,79.1227154 L100.783807,73.8651001 L106.131783,73.8651001 C106.611714,73.8651001 107,73.4727589 107,72.9878155 C107,72.5028721 106.611714,72.1105309 106.131783,72.1105309 Z" id="Shape"></path>
            </g>
        </g>
    </g>
</svg>