<?xml version="1.0" encoding="UTF-8"?>
<svg width="12px" height="12px" viewBox="0 0 12 12" version="1.1" xmlns="http://www.w3.org/2000/svg" xmlns:xlink="http://www.w3.org/1999/xlink">
    <!-- Generator: Sketch 54.1 (76490) - https://sketchapp.com -->
    <title>编组 19</title>
    <desc>Created with Sketch.</desc>
    <g id="Page-2" stroke="none" stroke-width="1" fill="none" fill-rule="evenodd">
        <g id="数据明细页" transform="translate(-202.000000, -160.000000)" fill-rule="nonzero" stroke="#307CF1">
            <g id="编组-20" transform="translate(85.000000, 137.000000)">
                <g id="编组-18" transform="translate(118.000000, 24.000000)">
                    <g id="编组-19">
                        <path d="M5,0 C2.23828125,0 0,2.23828125 0,5 C0,7.76171875 2.23828125,10 5,10 C7.76171875,10 10,7.76171875 10,5 C10,2.23828125 7.76171875,0 5,0 Z" id="Path" fill="#FFFFFF"></path>
                        <path d="M7.00390625,2.99023438 C6.86621094,2.85351563 6.64355469,2.85351563 6.50683594,2.99121094 L5,4.50195313 L3.49316406,2.99121094 C3.35644531,2.85351563 3.13378906,2.85351563 2.99609375,2.99023438 C2.85839844,3.12695313 2.85839844,3.34960938 2.99511719,3.48730469 L4.50390625,5 L2.99511719,6.51269531 C2.85839844,6.65039063 2.85839844,6.87304688 2.99609375,7.00976563 C3.06445313,7.078125 3.15429688,7.11230469 3.24414063,7.11230469 C3.33398438,7.11230469 3.42480469,7.078125 3.49316406,7.00878906 L5,5.49804688 L6.50683594,7.00976563 C6.57519531,7.07910156 6.66601562,7.11328125 6.75585937,7.11328125 C6.84570312,7.11328125 6.93554687,7.07910156 7.00390625,7.01074219 C7.14160156,6.87402344 7.14160156,6.65136719 7.00488281,6.51367188 L5.49609375,5 L7.00390625,3.48730469 C7.14160156,3.34960938 7.14160156,3.12695313 7.00390625,2.99023438 Z" id="Path" stroke-width="0.5" fill="#477DE9"></path>
                    </g>
                </g>
            </g>
        </g>
    </g>
</svg>