<?xml version="1.0" encoding="UTF-8"?>
<svg width="13px" height="24px" viewBox="0 0 13 24" version="1.1" xmlns="http://www.w3.org/2000/svg" xmlns:xlink="http://www.w3.org/1999/xlink">
    <!-- Generator: Sketch 54.1 (76490) - https://sketchapp.com -->
    <title>Combined Shape</title>
    <desc>Created with Sketch.</desc>
    <g id="Page-2" stroke="none" stroke-width="1" fill="none" fill-rule="evenodd">
        <g id="数据明细页" transform="translate(-116.000000, -166.000000)" fill="#E2ECFF">
            <g id="编组-20" transform="translate(85.000000, 137.000000)">
                <g id="Group-2" transform="translate(31.000000, 29.000000)">
                    <g id="编组-17">
                        <path d="M10.9367499,-5.32907052e-15 L12.0002441,-5.32907052e-15 L12.0146484,24 L10.9367499,24 C10.3431902,24 9.78029498,23.736354 9.40030733,23.2803688 L0,12 L9.40030733,0.719631201 C9.78029498,0.26364602 10.3431902,-2.99958932e-15 10.9367499,-3.10862447e-15 Z M7,14 C8.1045695,14 9,13.1045695 9,12 C9,10.8954305 8.1045695,10 7,10 C5.8954305,10 5,10.8954305 5,12 C5,13.1045695 5.8954305,14 7,14 Z" id="Combined-Shape"></path>
                    </g>
                </g>
            </g>
        </g>
    </g>
</svg>