<?xml version="1.0" encoding="UTF-8"?>
<svg width="18px" height="18px" viewBox="0 0 18 18" version="1.1" xmlns="http://www.w3.org/2000/svg" xmlns:xlink="http://www.w3.org/1999/xlink">
    <!-- Generator: Sketch 54.1 (76490) - https://sketchapp.com -->
    <title>Shape</title>
    <desc>Created with Sketch.</desc>
    <g id="Page-2" stroke="none" stroke-width="1" fill="none" fill-rule="evenodd">
        <g id="数据明细页" transform="translate(-206.000000, -201.000000)" fill="#477DE9" fill-rule="nonzero">
            <g id="编组-20" transform="translate(85.000000, 137.000000)">
                <path d="M137.883721,71.8563969 L131.007752,71.8563969 L131.007752,65.1279373 C131.007752,64.5044386 130.508527,64 129.891473,64 C129.274419,64 128.775194,64.5044386 128.775194,65.1279373 L128.775194,71.8563969 L122.116279,71.8563969 C121.499225,71.8563969 121,72.3608355 121,72.9843342 C121,73.6078329 121.499225,74.1122715 122.116279,74.1122715 L128.775194,74.1122715 L128.775194,80.8720627 C128.775194,81.4955614 129.274419,82 129.891473,82 C130.508527,82 131.007752,81.4955614 131.007752,80.8720627 L131.007752,74.1122715 L137.883721,74.1122715 C138.500775,74.1122715 139,73.6078329 139,72.9843342 C139,72.3608355 138.500775,71.8563969 137.883721,71.8563969 Z" id="Shape"></path>
            </g>
        </g>
    </g>
</svg>