<?xml version="1.0" encoding="UTF-8"?>
<svg width="42px" height="42px" viewBox="0 0 42 42" version="1.1" xmlns="http://www.w3.org/2000/svg" xmlns:xlink="http://www.w3.org/1999/xlink">
    <!-- Generator: Sketch 51.3 (57544) - http://www.bohemiancoding.com/sketch -->
    <title>编组 7</title>
    <desc>Created with Sketch.</desc>
    <defs></defs>
    <g id="页面1" stroke="none" stroke-width="1" fill="none" fill-rule="evenodd">
        <g id="UI" transform="translate(-627.000000, -2494.000000)">
            <g id="编组-7" transform="translate(627.000000, 2494.000000)">
                <path d="M21,42 C9.40078125,42 0,32.5992187 0,21 C0,9.40078125 9.40078125,0 21,0 C32.5992187,0 42,9.40078125 42,21 C42,32.5992187 32.5992187,42 21,42 L21,42 Z" id="Path" fill="#FF6A6A"></path>
                <g id="cancel-mark" transform="translate(21.500000, 22.000000) scale(-1, -1) translate(-21.500000, -22.000000) translate(13.000000, 14.000000)" fill="#FFFFFF" fill-rule="nonzero">
                    <path d="M0.482374792,13.7783413 L2.24744993,15.4634546 C2.89719927,16.0838605 3.95808404,16.0907867 4.6170318,15.4796157 L8.47076215,11.9035918 L12.2686206,15.530087 C12.9187788,16.1504929 13.9796635,16.1574191 14.6384069,15.5458633 L16.4280111,13.885697 C17.0871633,13.2741412 17.0949309,12.2756173 16.4447727,11.6548266 L12.6467099,8.02839549 L16.500849,4.45282051 C17.1595242,3.84126469 17.1677006,2.84274078 16.5171336,2.22195006 L14.7529443,0.536772605 C14.1028543,-0.0831844083 13.0419695,-0.0905595046 12.3832261,0.520611524 L8.52888256,4.09663542 L4.73095597,0.469819556 C4.08079781,-0.150201588 3.01984491,-0.157512553 2.36096528,0.453658475 L0.571565425,2.11414539 C-0.0875867427,2.72608599 -0.0955587092,3.72422512 0.554395036,4.34501584 L4.35266231,7.9718317 L0.499545181,11.5482404 C-0.159606987,12.1594114 -0.167578953,13.1583201 0.482374792,13.7783413 Z" id="路径"></path>
                </g>
            </g>
        </g>
    </g>
</svg>