<?xml version="1.0" encoding="UTF-8"?>
<svg width="42px" height="42px" viewBox="0 0 42 42" version="1.1" xmlns="http://www.w3.org/2000/svg" xmlns:xlink="http://www.w3.org/1999/xlink">
    <!-- Generator: Sketch 51.3 (57544) - http://www.bohemiancoding.com/sketch -->
    <title>编组 7</title>
    <desc>Created with Sketch.</desc>
    <defs></defs>
    <g id="页面1" stroke="none" stroke-width="1" fill="none" fill-rule="evenodd">
        <g id="UI" transform="translate(-627.000000, -2354.000000)">
            <g id="编组-7" transform="translate(627.000000, 2354.000000)">
                <path d="M21,42 C9.40078125,42 0,32.5992187 0,21 C0,9.40078125 9.40078125,0 21,0 C32.5992187,0 42,9.40078125 42,21 C42,32.5992187 32.5992187,42 21,42 L21,42 Z" id="Path" fill="#6CB840"></path>
                <path d="M18.3200918,30 C17.437427,29.9967672 16.5930283,29.6526848 15.9718119,29.0425393 L10.9755376,24.1743067 C9.6748208,22.906924 9.6748208,20.8492186 10.9755376,19.5819436 C12.2762544,18.3146686 14.3880805,18.3145609 15.6886867,19.5819436 L18.5032384,22.3243655 L27.8130793,14.5513145 C29.3402962,13.5517191 31.4104278,13.9492511 32.4346552,15.4373294 C33.2856896,16.6738924 33.1658038,18.3144531 32.1432353,19.4195471 L20.4851145,29.1561199 C19.8906623,29.6819959 19.1229065,29.9821116 18.3200918,30 Z" id="路径" fill="#FFFFFF"></path>
            </g>
        </g>
    </g>
</svg>