<?xml version="1.0" encoding="UTF-8"?>
<svg width="18px" height="18px" viewBox="0 0 18 18" version="1.1" xmlns="http://www.w3.org/2000/svg" xmlns:xlink="http://www.w3.org/1999/xlink">
    <!-- Generator: Sketch 54.1 (76490) - https://sketchapp.com -->
    <title>编组 4</title>
    <desc>Created with Sketch.</desc>
    <g id="Page-2" stroke="none" stroke-width="1" fill="none" fill-rule="evenodd">
        <g id="知识广场页：明细" transform="translate(-1142.000000, -210.000000)" fill="#477DE9" fill-rule="nonzero">
            <g id="编组" transform="translate(426.000000, 83.000000)">
                <g id="编组-4" transform="translate(716.000874, 127.000000)">
                    <path d="M5.13231129,7.46997363 C4.59798847,7.46997363 4.16560883,7.90235329 4.16560883,8.43667611 C4.16560883,8.97099894 4.59974612,9.40337858 5.13231129,9.40337858 C5.66663412,9.40337858 6.09901376,8.97099892 6.09901378,8.43667611 C6.09901379,7.9023533 5.66663412,7.46997365 5.13231129,7.46997363 L5.13231129,7.46997363 Z M12.8659311,7.46997363 C12.3316082,7.46997363 11.8992286,7.90235329 11.8992286,8.43667611 C11.8992286,8.97099894 12.3333659,9.40337858 12.8659311,9.40337858 C13.3984963,9.40337858 13.8308759,8.97099892 13.8326335,8.43667611 C13.8326335,7.90235329 13.3984962,7.46997365 12.8659311,7.46997363 L12.8659311,7.46997363 Z M8.99912118,7.46997363 C8.46479835,7.46997363 8.03241872,7.90235329 8.0324187,8.43667611 C8.03241868,8.97099894 8.46655599,9.40337858 8.99912118,9.40337858 C9.53168637,9.40337858 9.96582364,8.97099892 9.96582364,8.43667611 C9.96582364,7.9023533 9.53168636,7.46997365 8.99912118,7.46997363 L8.99912118,7.46997363 Z" id="Shape"></path>
                    <path d="M17.2846402,5.13055366 C16.8294112,4.12694074 16.1773264,3.22527097 15.3459623,2.45190899 C14.5198711,1.68206229 13.5584416,1.07743384 12.4880383,0.655600043 C11.3824822,0.221462754 10.2083781,0 8.99912118,0 C7.78986427,0 6.61576018,0.221462754 5.51020409,0.655600043 C4.43980081,1.07743384 3.47837126,1.68206229 2.65228005,2.45190899 C1.82267357,3.22527097 1.17058881,4.12518308 0.713602195,5.13055366 C0.240796793,6.17459233 -7.15871806e-13,7.2836637 -7.15871806e-13,8.42613026 C-7.15871806e-13,10.4808124 0.792696023,12.4458549 2.23571916,13.9855483 L2.64173421,17.4410702 C2.66634118,17.6519871 2.79464896,17.8365394 2.98447418,17.931452 C3.07411386,17.9771507 3.17254175,18 3.269212,18 C3.37642808,18 3.48540182,17.9718777 3.58207207,17.9173909 L6.18865346,16.4356996 C7.09208086,16.7134069 8.03593399,16.8540182 8.99736354,16.8540182 C10.2066205,16.8540182 11.3807245,16.6325554 12.4862806,16.1984181 C13.5566839,15.7765843 14.5181135,15.1719559 15.3442047,14.4021092 C16.1738111,13.6287472 16.8258959,12.7288351 17.2828825,11.7234645 C17.7574456,10.6794258 17.9964847,9.57211211 17.9964847,8.42788789 C17.9982424,7.2836637 17.7574456,6.17459231 17.2846402,5.13055366 Z M16.1316278,11.1979299 C15.7449468,12.0486281 15.1912899,12.8149595 14.4829606,13.4740748 C13.7728737,14.1349477 12.9450249,14.6552094 12.0222635,15.0190411 C11.0643492,15.3969339 10.0466751,15.5867591 8.99736354,15.5867591 C8.07811738,15.5867591 7.17644762,15.4391173 6.32223415,15.1473489 C6.14998535,15.0893467 5.96191778,15.1069232 5.80548774,15.1965628 L3.7859584,16.3443023 L3.46606777,13.6252319 C3.450249,13.4846206 3.38697392,13.3545552 3.28854604,13.2543697 C1.98437653,11.9326238 1.26550141,10.2171663 1.26550141,8.42613026 C1.26550141,7.46470071 1.46763011,6.53315106 1.86661459,5.65433063 C2.25329558,4.80363246 2.80695245,4.03730104 3.51528172,3.37818572 C4.22536862,2.71731277 5.05321747,2.19705107 5.97597891,1.8332194 C6.93213553,1.45708427 7.94980958,1.26550141 8.99912118,1.26550141 C10.0484328,1.26550141 11.0661068,1.45708427 12.0240211,1.8332194 C12.9467826,2.19705107 13.7746314,2.71555511 14.4847183,3.37818572 C15.1912899,4.03730104 15.7467044,4.80187482 16.1333854,5.65433063 C16.5323699,6.53315106 16.7344986,7.46470071 16.7344986,8.42613026 C16.732741,9.38755981 16.5306123,10.3191095 16.1316278,11.1979299 Z" id="Shape"></path>
                </g>
            </g>
        </g>
    </g>
</svg>