<?xml version="1.0" encoding="UTF-8"?>
<svg width="12px" height="16px" viewBox="0 0 12 16" version="1.1" xmlns="http://www.w3.org/2000/svg" xmlns:xlink="http://www.w3.org/1999/xlink">
    <!-- Generator: Sketch 54.1 (76490) - https://sketchapp.com -->
    <title>形状</title>
    <desc>Created with Sketch.</desc>
    <g id="Page-2" stroke="none" stroke-width="1" fill="none" fill-rule="evenodd">
        <g id="元数据1" transform="translate(-825.000000, -272.000000)" fill="#EC7272" fill-rule="nonzero">
            <g id="编组" transform="translate(463.000000, 268.000000)">
                <path d="M373.965812,13.0332119 C373.782531,10.7322162 372.671531,9.29027822 371.691406,8.01784349 C370.783844,6.83984845 370,5.82258772 370,4.32197898 C370,4.20144332 369.93,4.09127372 369.819,4.03603825 C369.707656,3.98047131 369.573875,3.98957176 369.472656,4.06050699 C368.000656,5.07620076 366.772469,6.78807839 366.343437,8.42145716 C366.045594,9.55862074 366.006188,10.837022 366.000656,11.6813442 C364.641281,11.40137 364.333344,9.44061633 364.330094,9.41925138 C364.314781,9.31754942 364.250344,9.22904611 364.156594,9.1807113 C364.061875,9.13300932 363.950531,9.12954392 363.8545,9.1753776 C363.783219,9.20864544 362.104812,10.031 362.007156,13.3144216 C362.000313,13.4236571 362,13.533224 362,13.6427608 C362,16.8326467 364.691719,19.4280809 368,19.4280809 C368.004563,19.4283822 368.009437,19.429015 368.013344,19.4280809 C368.014656,19.4280809 368.015938,19.4280809 368.017562,19.4280809 C371.317719,19.4189503 374,16.8270116 374,13.6427608 C374,13.4823579 373.965812,13.0332119 373.965812,13.0332119 Z M368,18.7852642 C366.897125,18.7852642 366,17.8637389 366,16.7309749 C366,16.6923733 365.999687,16.6534403 366.002594,16.6057383 C366.015938,16.1280253 366.110031,15.8019161 366.213219,15.5850122 C366.406594,15.985522 366.752281,16.3536982 367.313812,16.3536982 C367.498063,16.3536982 367.647156,16.2099293 367.647156,16.0322899 C367.647156,15.5746762 367.656937,15.04673 367.775094,14.5702526 C367.88025,14.1477751 368.131531,13.6982976 368.449906,13.3379863 C368.5915,13.8056647 368.867563,14.1841768 369.137094,14.5536186 C369.522844,15.0821675 369.921594,15.6286461 369.991594,16.5605374 C369.995812,16.6157729 370.000063,16.6713398 370.000063,16.7309749 C370,17.8637088 369.102875,18.7852642 368,18.7852642 Z" id="形状"></path>
            </g>
        </g>
    </g>
</svg>