<?xml version="1.0" encoding="UTF-8"?>
<svg width="20px" height="16px" viewBox="0 0 20 16" version="1.1" xmlns="http://www.w3.org/2000/svg" xmlns:xlink="http://www.w3.org/1999/xlink">
    <!-- Generator: Sketch 54.1 (76490) - https://sketchapp.com -->
    <title>Group</title>
    <desc>Created with Sketch.</desc>
    <g id="Page-2" stroke="none" stroke-width="1" fill="none" fill-rule="evenodd">
        <g id="数据明细页" transform="translate(-683.000000, -637.000000)" fill="#477DE9" fill-rule="nonzero">
            <g id="Group" transform="translate(683.000000, 637.000000)">
                <path d="M17.5584421,0 L2.44568448,0 C1.09662671,0 0,1.10476708 0,2.46383904 L0,12.8694943 C0,14.2285662 1.09662671,15.3333333 2.44568448,15.3333333 L17.5543038,15.3333333 C18.9033616,15.3333333 19.9999883,14.2285662 19.9999883,12.8694943 L19.9999883,2.46800798 C20.0041265,1.10893602 18.9074998,0 17.5584421,0 Z M18.8868088,12.8694943 C18.8868088,13.6073953 18.2909059,14.2077216 17.5584421,14.2077216 L2.44568448,14.2077216 C1.7132206,14.2077216 1.11731778,13.6073953 1.11731778,12.8694943 L1.11731778,2.46800798 C1.11731778,1.73010694 1.7132206,1.12978068 2.44568448,1.12978068 L17.5543038,1.12978068 C18.2867677,1.12978068 18.8826705,1.73010694 18.8826705,2.46800798 L18.8826705,12.8694943 L18.8868088,12.8694943 Z" id="Shape"></path>
                <path d="M12.651689,7.53116077 L17.5245246,3.00887921 C17.751264,2.79556404 17.7718766,2.43292826 17.5657499,2.19401527 C17.3596232,1.95936858 17.0092078,1.93803707 16.7783459,2.15135223 L10.0586149,8.39295405 L8.747649,7.18132389 C8.74352647,7.17705759 8.73940393,7.17279129 8.73940393,7.16852498 C8.71054619,7.13866086 8.68168845,7.11306304 8.64870818,7.08746522 L3.31414876,2.14708593 C3.08328684,1.93377076 2.73287142,1.95510228 2.52674471,2.19401527 C2.32061799,2.43292826 2.34123066,2.79556404 2.57209258,3.00887921 L7.50264364,7.5695575 L2.59270525,12.3264857 C2.3700884,12.5440672 2.3577208,12.906703 2.56797005,13.1413497 C2.67927848,13.2608062 2.82768971,13.3248007 2.97610095,13.3248007 C3.11214458,13.3248007 3.24818821,13.2736051 3.3553741,13.1712138 L8.3395181,8.34602471 L9.69170936,9.59605159 C9.79889525,9.69417657 9.93081635,9.74110591 10.0627375,9.74110591 C10.1946585,9.74110591 10.3307022,9.68991027 10.4337655,9.59178529 L11.8230596,8.30336168 L16.7783459,13.1754801 C16.8855318,13.2821377 17.0256979,13.3333333 17.1617416,13.3333333 C17.3101528,13.3333333 17.4544415,13.2736051 17.5657499,13.1541486 C17.7759992,12.9237682 17.7677541,12.5568661 17.5451373,12.3392847 L12.651689,7.53116077 Z" id="Path"></path>
            </g>
        </g>
    </g>
</svg>