<?xml version="1.0" encoding="UTF-8"?>
<svg width="17px" height="18px" viewBox="0 0 17 18" version="1.1" xmlns="http://www.w3.org/2000/svg" xmlns:xlink="http://www.w3.org/1999/xlink">
    <!-- Generator: Sketch 54.1 (76490) - https://sketchapp.com -->
    <title>filter (1)</title>
    <desc>Created with Sketch.</desc>
    <g id="Page-2" stroke="none" stroke-width="1" fill="none" fill-rule="evenodd">
        <g id="元数据1" transform="translate(-1108.000000, -180.000000)" fill="#A2A2A2" fill-rule="nonzero">
            <g id="filter-(1)" transform="translate(1108.000000, 180.000000)">
                <path d="M17.0059104,2.60178911 C17.0059104,1.71977641 16.0949918,1.06333179 14.2209373,0.594818172 C12.6866337,0.211242252 10.6570296,0 8.50595283,0 C6.3549608,0 4.32527199,0.211242252 2.79096831,0.594818172 C0.916913853,1.06333179 0.00591044776,1.71977641 0.00591044776,2.60178911 C0.00591044776,2.92814652 0.131028251,3.22356355 0.383128756,3.49007465 L6.16813177,10.5069286 L6.16813177,17.2231098 C6.16813177,17.4430832 6.28180587,17.6473744 6.46871966,17.7633373 C6.57103483,17.8268286 6.68725198,17.858871 6.80389297,17.858871 C6.90035913,17.858871 6.99699483,17.836916 7.0862557,17.7927518 L10.4833397,16.1090019 C10.6994985,16.0018549 10.8363991,15.7815425 10.8367381,15.5402075 L10.8432653,10.5073524 L16.6290312,3.48965081 C16.8809622,3.22322448 17.0059104,2.92806175 17.0059104,2.60178911 Z M3.38595602,1.76038036 C4.78691939,1.44512758 6.6051964,1.27152239 8.50595283,1.27152239 C10.4067093,1.27152239 12.225071,1.44512758 13.6258649,1.76038036 C15.1728838,2.10852319 15.6077444,2.48268984 15.711755,2.60178911 C15.6076597,2.72088837 15.1728838,3.09505502 13.6258649,3.44319785 C12.225071,3.75845064 10.4066245,3.93205583 8.50595283,3.93205583 C6.60528117,3.93205583 4.78691939,3.75845064 3.38595602,3.44328262 C1.83902189,3.09513979 1.40407646,2.72097314 1.30006593,2.60187387 C1.40407646,2.48268984 1.83902189,2.10852319 3.38595602,1.76038036 Z M9.71737459,9.87430378 C9.62370578,9.98797788 9.57233627,10.1305579 9.57216674,10.277885 L9.56580912,15.1446793 L7.43973893,16.1985171 L7.43973893,10.2787327 C7.43973893,10.1311513 7.38845419,9.98814742 7.29453107,9.87430378 L2.99314037,4.65699312 C4.501505,5.0097982 6.44761239,5.20366298 8.50595283,5.20366298 C10.564378,5.20366298 12.5104007,5.0097982 14.0187653,4.65699312 L9.71737459,9.87430378 Z" id="Shape"></path>
            </g>
        </g>
    </g>
</svg>